<svg width="24" height="20" viewBox="0 0 24 20" fill="none" xmlns="http://www.w3.org/2000/svg">
<path d="M6.41699 8.58374L6.41699 5.74976L3.58398 5.74975L3.58398 8.58374L0.75 8.58374L0.75 11.4167L3.58398 11.4167L3.58398 14.2498L6.41699 14.2498L6.41699 11.4167L23.417 11.4167L23.417 8.58374L6.41699 8.58374ZM6.41699 14.2498L6.41699 17.0837L9.25 17.0837L9.25 14.2498L6.41699 14.2498ZM6.41699 2.91675L6.41699 5.74976L9.25 5.74976L9.25 2.91675L6.41699 2.91675ZM12.083 17.0837L9.25 17.0837L9.25 19.9167L12.083 19.9167L12.083 17.0837ZM9.25 0.0837396L9.25 2.91675L12.083 2.91675L12.083 0.0837397L9.25 0.0837396Z" fill="#00453D"/>
</svg>
