<svg width="20" height="20" viewBox="0 0 20 20" fill="none" xmlns="http://www.w3.org/2000/svg">
<path d="M8.33289 5H3.33289V16.667H14.9999V11.667H16.6669V18.333H1.66687V3.33301H8.33289V5ZM6.66687 13.333H9.99988V15H4.99988V10H6.66687V13.333ZM11.6669 13.333H9.99988V11.667H11.6669V13.333ZM14.9999 10H13.3339V11.667H11.6669V10H13.3329V8.33301H14.9999V10ZM8.33289 10H6.66687V8.33301H8.33289V10ZM9.99988 8.33301H8.33289V6.66699H9.99988V8.33301ZM16.6669 8.33301H14.9999V6.66699H16.6669V8.33301ZM11.6669 6.66699H9.99988V5H11.6669V6.66699ZM18.3329 6.66699H16.6669V5H18.3329V6.66699ZM14.9999 3.33301H13.3339V5H11.6669V3.33301H13.3329V1.66699H14.9999V3.33301ZM16.6669 5H14.9999V3.33301H16.6669V5Z" fill="white"/>
</svg>
