<svg width="17" height="15" viewBox="0 0 17 15" fill="none" xmlns="http://www.w3.org/2000/svg">
<path d="M12.2515 6.31112L12.2906 4.3115L14.2903 4.35066L14.2511 6.35027L16.2507 6.38943L16.2116 8.38905L14.2119 8.34989L14.1728 10.3495L12.1732 10.3104L12.2123 8.31074L0.214631 8.07581L0.253785 6.07619L12.2515 6.31112ZM12.1732 10.3104L12.134 12.31L10.1344 12.2708L10.1736 10.2712L12.1732 10.3104ZM12.3298 2.31189L12.2906 4.3115L10.291 4.27235L10.3302 2.27273L12.3298 2.31189ZM8.13479 12.2317L10.1344 12.2708L10.0953 14.2704L8.09563 14.2313L8.13479 12.2317ZM10.3693 0.273116L10.3302 2.27273L8.33056 2.23358L8.36971 0.233962L10.3693 0.273116Z" fill="#00453D"/>
</svg>
