<svg width="20" height="20" viewBox="0 0 20 20" fill="none" xmlns="http://www.w3.org/2000/svg">
<path d="M18.333 18.333H16.667V16.667H18.333V18.333ZM16.667 16.667H15V15H16.667V16.667ZM11.667 15H5V13.333H11.667V15ZM15 15H13.333V13.333H15V15ZM5 13.333H3.33301V11.667H5V13.333ZM13.333 13.333H11.667V11.667H13.333V13.333ZM3.33301 11.667H1.66699V5H3.33301V11.667ZM15 11.667H13.333V5H15V11.667ZM5 5H3.33301V3.33301H5V5ZM13.333 5H11.667V3.33301H13.333V5ZM11.667 3.33301H5V1.66699H11.667V3.33301Z" fill="white"/>
</svg>
